<svg width="1043" height="421" viewBox="0 0 1043 421" fill="none" xmlns="http://www.w3.org/2000/svg">
<path opacity="0.3" d="M737.129 93.62C738.449 93.62 739.659 93.9 740.759 94.46C741.859 95 742.729 95.78 743.369 96.8C744.029 97.8 744.359 98.95 744.359 100.25C744.359 101.67 743.989 102.93 743.249 104.03C742.529 105.11 741.539 105.95 740.279 106.55C739.039 107.13 737.649 107.42 736.109 107.42C733.109 107.42 730.739 106.53 728.999 104.75C727.259 102.97 726.389 100.41 726.389 97.07C726.389 94.67 726.849 92.61 727.769 90.89C728.709 89.15 730.019 87.83 731.699 86.93C733.379 86.03 735.329 85.58 737.549 85.58C738.749 85.58 739.889 85.71 740.969 85.97C742.049 86.23 742.969 86.61 743.729 87.11L741.569 91.37C740.549 90.65 739.259 90.29 737.699 90.29C736.179 90.29 734.949 90.71 734.009 91.55C733.069 92.39 732.529 93.6 732.389 95.18C733.589 94.14 735.169 93.62 737.129 93.62ZM735.749 103.19C736.589 103.19 737.269 102.95 737.789 102.47C738.329 101.99 738.599 101.34 738.599 100.52C738.599 99.72 738.329 99.08 737.789 98.6C737.269 98.12 736.579 97.88 735.719 97.88C734.859 97.88 734.159 98.13 733.619 98.63C733.079 99.11 732.809 99.75 732.809 100.55C732.809 101.33 733.069 101.97 733.589 102.47C734.129 102.95 734.849 103.19 735.749 103.19ZM762.102 102.29V107H745.752V103.28L753.612 95.93C754.372 95.21 754.882 94.6 755.142 94.1C755.402 93.58 755.532 93.06 755.532 92.54C755.532 91.86 755.302 91.33 754.842 90.95C754.382 90.57 753.712 90.38 752.832 90.38C752.052 90.38 751.332 90.56 750.672 90.92C750.032 91.26 749.502 91.76 749.082 92.42L744.672 89.96C745.492 88.6 746.642 87.53 748.122 86.75C749.602 85.97 751.352 85.58 753.372 85.58C754.972 85.58 756.382 85.84 757.602 86.36C758.842 86.88 759.802 87.63 760.482 88.61C761.182 89.57 761.532 90.69 761.532 91.97C761.532 93.11 761.282 94.19 760.782 95.21C760.302 96.21 759.362 97.35 757.962 98.63L754.002 102.29H762.102ZM771.691 93.65C774.631 93.65 776.801 94.25 778.201 95.45C779.621 96.65 780.331 98.25 780.331 100.25C780.331 101.55 779.991 102.75 779.311 103.85C778.651 104.93 777.631 105.8 776.251 106.46C774.891 107.1 773.201 107.42 771.181 107.42C769.701 107.42 768.231 107.24 766.771 106.88C765.331 106.52 764.091 106.01 763.051 105.35L765.181 100.88C766.021 101.44 766.941 101.87 767.941 102.17C768.961 102.47 769.981 102.62 771.001 102.62C772.021 102.62 772.831 102.43 773.431 102.05C774.051 101.65 774.361 101.1 774.361 100.4C774.361 99.7 774.061 99.17 773.461 98.81C772.861 98.45 771.801 98.27 770.281 98.27H764.581L765.631 86H779.011V90.59H770.551L770.281 93.65H771.691ZM810.914 102.44V110.36H805.634V107H795.404V110.36H790.094V102.44H790.694C791.674 102.42 792.354 101.89 792.734 100.85C793.114 99.79 793.344 98.31 793.424 96.41L793.634 90.74H808.664V102.44H810.914ZM798.554 96.83C798.494 98.29 798.384 99.46 798.224 100.34C798.064 101.22 797.764 101.92 797.324 102.44H802.964V95.27H798.614L798.554 96.83ZM829.323 90.47C831.023 90.47 832.543 90.83 833.883 91.55C835.243 92.25 836.303 93.24 837.063 94.52C837.823 95.78 838.203 97.22 838.203 98.84C838.203 100.46 837.823 101.91 837.063 103.19C836.303 104.47 835.243 105.47 833.883 106.19C832.543 106.91 831.023 107.27 829.323 107.27C827.183 107.27 825.333 106.71 823.773 105.59C822.233 104.47 821.223 102.99 820.743 101.15H819.033V107H813.363V90.74H819.033V96.35H820.773C821.313 94.57 822.343 93.15 823.863 92.09C825.383 91.01 827.203 90.47 829.323 90.47ZM829.323 102.74C830.263 102.74 831.043 102.39 831.663 101.69C832.283 100.99 832.593 100.04 832.593 98.84C832.593 97.64 832.283 96.7 831.663 96.02C831.043 95.34 830.263 95 829.323 95C828.383 95 827.603 95.34 826.983 96.02C826.363 96.7 826.053 97.64 826.053 98.84C826.053 100.04 826.363 100.99 826.983 101.69C827.603 102.39 828.383 102.74 829.323 102.74ZM840.902 90.74H846.572V99.26L853.382 90.74H858.632V107H852.932V98.45L846.182 107H840.902V90.74ZM849.392 89.18C847.472 89.18 846.052 88.78 845.132 87.98C844.232 87.16 843.772 85.91 843.752 84.23H847.442C847.462 84.93 847.622 85.46 847.922 85.82C848.222 86.16 848.702 86.33 849.362 86.33C850.022 86.33 850.512 86.15 850.832 85.79C851.172 85.43 851.342 84.91 851.342 84.23H855.092C855.092 85.91 854.622 87.16 853.682 87.98C852.762 88.78 851.332 89.18 849.392 89.18ZM878.245 107V98.45L874.075 105.56H871.645L867.595 98.33V107H862.465V90.74H868.465L872.995 99.23L877.975 90.74H883.345L883.375 107H878.245ZM887.221 90.74H892.921V107H887.221V90.74ZM890.071 88.94C889.031 88.94 888.191 88.65 887.551 88.07C886.911 87.49 886.591 86.77 886.591 85.91C886.591 85.05 886.911 84.33 887.551 83.75C888.191 83.17 889.031 82.88 890.071 82.88C891.111 82.88 891.951 83.16 892.591 83.72C893.231 84.26 893.551 84.96 893.551 85.82C893.551 86.72 893.231 87.47 892.591 88.07C891.951 88.65 891.111 88.94 890.071 88.94ZM909.882 98.48C911.742 99.1 912.672 100.38 912.672 102.32C912.672 103.78 912.102 104.93 910.962 105.77C909.822 106.59 908.142 107 905.922 107H896.772V90.74H905.502C907.622 90.74 909.262 91.11 910.422 91.85C911.602 92.59 912.192 93.63 912.192 94.97C912.192 95.75 911.992 96.44 911.592 97.04C911.192 97.64 910.622 98.12 909.882 98.48ZM901.872 97.28H904.992C906.312 97.28 906.972 96.79 906.972 95.81C906.972 94.87 906.312 94.4 904.992 94.4H901.872V97.28ZM905.412 103.31C906.792 103.31 907.482 102.81 907.482 101.81C907.482 100.81 906.812 100.31 905.472 100.31H901.872V103.31H905.412Z" fill="white"/>
<path opacity="0.3" d="M16 406L38.8211 409.54L30.4765 388.007L16 406ZM1025 15L1002.18 11.4598L1010.52 32.9935L1025 15ZM741.241 122.815L32.0612 397.631L33.5066 401.361L742.686 126.545L741.241 122.815ZM1007.49 19.6391L882.759 67.9752L884.204 71.7049L1008.94 23.3688L1007.49 19.6391Z" fill="white"/>
<rect x="2" y="419" width="417" height="1039" transform="rotate(-90 2 419)" stroke="white" stroke-width="4"/>
</svg>
