<svg width="50" height="50" viewBox="0 0 50 50" fill="none" xmlns="http://www.w3.org/2000/svg">
<g filter="url(#filter0_d)">
<path d="M16.5 28.5V4.5H29L31 10H45V33H33L31 28.5H16.5Z" fill="#AA090F"/>
<path d="M43.5 8.99998H31.2817C31.0771 8.40201 29.5 4 29.5 4C29.0319 4 16 4 16 4C16 4 16 5.12119 16 6.50002C16 6.50002 16 27.6213 16 29C16 29 17.1218 29 18.5 29H30.5673L32.5 34C32.5 34 32.615 34 32.875 34H46C46 34 46 32.8788 46 31.5C46 31.5 46 10.3787 46 8.99998C46 8.99998 44.8782 8.99998 43.5 8.99998ZM18.5 27.75C17.8103 27.75 17.25 27.75 17.25 27.75V6.50002C17.25 5.81096 17.25 5.19383 17.25 5.25004H28.6782L36.376 27.75L18.5 27.75ZM31.9016 29H35.8732L33.0934 32.177L31.9016 29ZM44.75 31.5C44.75 32.189 44.75 32.5 44.75 32.75H34.2518L37.5 29L37.6961 27.7499H42.25C42.25 27.7499 42.25 27.4704 42.25 27.1249C42.25 26.7794 42.25 26.5 42.25 26.5H37.2684L36.4132 24H42.25C42.25 24 42.25 23.7204 42.25 23.375C42.25 23.0295 42.25 22.7499 42.25 22.7499H35.9856L35.1303 20.2499H42.25C42.25 20.2499 42.25 19.9704 42.25 19.6249C42.25 19.2794 42.25 18.9999 42.25 18.9999H34.7027L33.8475 16.4999H42.2501C42.2501 16.4999 42.2501 16.2203 42.2501 15.8748C42.2501 15.5294 42.2501 15.2498 42.2501 15.2498H33.4198L31.7093 10.2498H43.5C44.1897 10.2498 44.75 10.2498 44.75 10.2498L44.75 31.5Z" fill="white"/>
<path d="M19.7501 15.2501H29.7501C29.7501 15.2501 29.7501 14.9705 29.7501 14.6251C29.7501 14.2796 29.7501 14 29.7501 14H29.0619C28.8144 12.2924 27.5862 10.9144 25.9613 10.442C25.9718 10.3769 26 9.00006 26 9.00006C26 9.00006 25.4398 9.00007 24.7501 9.00007C24.0604 9.00007 23.5 9 23.5 9C23.5 9 23.5284 10.3769 23.539 10.442C21.9141 10.9144 20.6859 12.2924 20.4383 14H19.7502C19.7502 14 19.7501 14.2796 19.7501 14.6251C19.7501 14.9705 19.7501 15.2501 19.7501 15.2501ZM24.7501 11.5001C26.2596 11.5001 27.5215 12.5755 27.8119 14.0001H21.6883C21.9786 12.5755 23.2405 11.5001 24.7501 11.5001Z" fill="white"/>
<path d="M29.75 22.75H19.75C19.75 22.75 19.75 23.0296 19.75 23.375C19.75 23.7205 19.75 24 19.75 24H29.75C29.75 24 29.75 23.7205 29.75 23.375C29.75 23.0296 29.75 22.75 29.75 22.75Z" fill="white"/>
<path d="M29.75 19H19.75C19.75 19 19.75 19.2796 19.75 19.625C19.75 19.9705 19.75 20.25 19.75 20.25H29.75C29.75 20.25 29.75 19.9705 29.75 19.625C29.75 19.2796 29.75 19 29.75 19Z" fill="white"/>
</g>
<defs>
<filter id="filter0_d" x="0" y="0" width="50" height="50" filterUnits="userSpaceOnUse" color-interpolation-filters="sRGB">
<feFlood flood-opacity="0" result="BackgroundImageFix"/>
<feColorMatrix in="SourceAlpha" type="matrix" values="0 0 0 0 0 0 0 0 0 0 0 0 0 0 0 0 0 0 127 0"/>
<feOffset dx="-6" dy="6"/>
<feGaussianBlur stdDeviation="5"/>
<feColorMatrix type="matrix" values="0 0 0 0 0 0 0 0 0 0 0 0 0 0 0 0 0 0 0.25 0"/>
<feBlend mode="multiply" in2="BackgroundImageFix" result="effect1_dropShadow"/>
<feBlend mode="normal" in="SourceGraphic" in2="effect1_dropShadow" result="shape"/>
</filter>
</defs>
</svg>
