<svg width="30" height="30" viewBox="0 0 30 30" fill="none" xmlns="http://www.w3.org/2000/svg">
<path d="M0.5 24.5V0.5H13L15 6H29V29H17L15 24.5H0.5Z" fill="#AA090F"/>
<path d="M27.5 4.99998H15.2817C15.0771 4.40201 13.5 0 13.5 0C13.0319 0 9.35793e-06 0 9.35793e-06 0C9.35793e-06 0 0 1.12119 0 2.50002C0 2.50002 0 23.6213 0 25C0 25 1.12184 25 2.50002 25H14.5673L16.5 30C16.5 30 16.615 30 16.875 30H30C30 30 30 28.8788 30 27.5C30 27.5 30 6.37875 30 4.99998C30 4.99998 28.8782 4.99998 27.5 4.99998ZM2.50002 23.75C1.81031 23.75 1.25004 23.75 1.25004 23.75V2.50002C1.25004 1.81096 1.25004 1.19383 1.25004 1.25004H12.6782L20.376 23.75L2.50002 23.75ZM15.9016 25H19.8732L17.0934 28.177L15.9016 25ZM28.75 27.5C28.75 28.189 28.75 28.5 28.75 28.75H18.2518L21.5 25L21.6961 23.7499H26.25C26.25 23.7499 26.25 23.4704 26.25 23.1249C26.25 22.7794 26.25 22.5 26.25 22.5H21.2684L20.4132 20H26.25C26.25 20 26.25 19.7204 26.25 19.375C26.25 19.0295 26.25 18.7499 26.25 18.7499H19.9856L19.1303 16.2499H26.25C26.25 16.2499 26.25 15.9704 26.25 15.6249C26.25 15.2794 26.25 14.9999 26.25 14.9999H18.7027L17.8475 12.4999H26.2501C26.2501 12.4999 26.2501 12.2203 26.2501 11.8748C26.2501 11.5294 26.2501 11.2498 26.2501 11.2498H17.4198L15.7093 6.24984H27.5C28.1897 6.24984 28.75 6.24984 28.75 6.24984L28.75 27.5Z" fill="white"/>
<path d="M3.75015 11.2501H13.7501C13.7501 11.2501 13.7501 10.9705 13.7501 10.6251C13.7501 10.2796 13.7501 10 13.7501 10H13.0619C12.8144 8.29245 11.5862 6.91444 9.96126 6.442C9.97181 6.3769 10 5.00006 10 5.00006C10 5.00006 9.43978 5.00007 8.75013 5.00007C8.06042 5.00007 7.5 5 7.5 5C7.5 5 7.52845 6.3769 7.539 6.442C5.91407 6.91444 4.68589 8.29245 4.43833 10H3.75016C3.75016 10 3.75015 10.2796 3.75015 10.6251C3.75009 10.9705 3.75015 11.2501 3.75015 11.2501ZM8.75007 7.50009C10.2596 7.50009 11.5215 8.57546 11.8119 10.0001H5.68825C5.97864 8.57546 7.24052 7.50009 8.75007 7.50009Z" fill="white"/>
<path d="M13.75 18.75H3.75004C3.75004 18.75 3.75003 19.0296 3.75003 19.375C3.75003 19.7205 3.75 20 3.75 20H13.75C13.75 20 13.75 19.7205 13.75 19.375C13.75 19.0296 13.75 18.75 13.75 18.75Z" fill="white"/>
<path d="M13.75 15H3.75004C3.75004 15 3.75003 15.2796 3.75003 15.625C3.75003 15.9705 3.75 16.25 3.75 16.25H13.75C13.75 16.25 13.75 15.9705 13.75 15.625C13.75 15.2796 13.75 15 13.75 15Z" fill="white"/>
</svg>
