<svg width="26" height="26" viewBox="0 0 26 26" fill="none" xmlns="http://www.w3.org/2000/svg">
<g clip-path="url(#clip0)">
<path d="M17.1265 7.49956L21.1259 3.50012C21.2831 3.34295 21.4422 3.21094 21.4422 3.21094C21.4422 3.21094 21.7221 3.33989 22.191 3.80879C24.6477 6.26549 26 9.52491 26 12.9998C26 16.4748 24.6477 19.7342 22.191 22.1909C19.7344 24.6476 16.4749 25.9998 13 25.9998C9.52507 25.9998 6.26564 24.6476 3.80895 22.1909C1.35226 19.7342 0 16.4694 0 12.9998C0 9.5303 1.35226 6.26549 3.80356 3.80879C6.91753 0.694828 11.3568 -0.625106 15.6722 0.279991L15.2843 2.18177C11.6154 1.41136 7.83879 2.53196 5.18815 5.1826C0.87816 9.49259 0.87816 16.5071 5.18815 20.8171C9.49813 25.1271 16.5126 25.1271 20.8226 20.8171C24.9063 16.7334 25.1218 10.2307 21.4799 5.89375L18.5 8.87365L17.1265 7.49956Z" fill="white"/>
<path d="M12.1508 4.00018H13.1206H14.0849V13.035V13.4498L9.0001 18.5347L7.6001 17.2002L12.1508 12.6417V4.00018Z" fill="white"/>
</g>
<defs>
<clipPath id="clip0">
<rect width="26" height="26" fill="white"/>
</clipPath>
</defs>
</svg>
