<svg width="45" height="50" viewBox="0 0 45 50" fill="none" xmlns="http://www.w3.org/2000/svg">
<g filter="url(#filter0_d)">
<path d="M17 32.7998V5.2998H34L39.5 10.7998V32.7998H17Z" fill="#00456F"/>
<path fill-rule="evenodd" clip-rule="evenodd" d="M38.0024 9.91141L34.4006 6.31587V9.91141H38.0024ZM17.3578 5.35781V32.2422H38.9645V11.2692H33.0428V5.35781H17.3578ZM16 33.6V4H34.0026L40.3223 10.3087V33.6H16Z" fill="white"/>
<path fill-rule="evenodd" clip-rule="evenodd" d="M21.921 13.4307H34.4013V14.7885H21.921V13.4307Z" fill="white"/>
<path fill-rule="evenodd" clip-rule="evenodd" d="M21.921 16.9482H34.4013V18.3061H21.921V16.9482Z" fill="white"/>
<path fill-rule="evenodd" clip-rule="evenodd" d="M21.921 20.4668H34.4013V21.8246H21.921V20.4668Z" fill="white"/>
<path fill-rule="evenodd" clip-rule="evenodd" d="M21.921 23.9854H34.4013V25.3432H21.921V23.9854Z" fill="white"/>
</g>
<defs>
<filter id="filter0_d" x="0" y="0" width="44.3223" height="49.6" filterUnits="userSpaceOnUse" color-interpolation-filters="sRGB">
<feFlood flood-opacity="0" result="BackgroundImageFix"/>
<feColorMatrix in="SourceAlpha" type="matrix" values="0 0 0 0 0 0 0 0 0 0 0 0 0 0 0 0 0 0 127 0"/>
<feOffset dx="-6" dy="6"/>
<feGaussianBlur stdDeviation="5"/>
<feColorMatrix type="matrix" values="0 0 0 0 0 0 0 0 0 0 0 0 0 0 0 0 0 0 0.25 0"/>
<feBlend mode="multiply" in2="BackgroundImageFix" result="effect1_dropShadow"/>
<feBlend mode="normal" in="SourceGraphic" in2="effect1_dropShadow" result="shape"/>
</filter>
</defs>
</svg>
