<svg xmlns="http://www.w3.org/2000/svg" viewBox="0 0 24.22 40.63"><defs><style>.cls-1{fill:#e40005;}.cls-1,.cls-2,.cls-3{fill-rule:evenodd;}.cls-2{fill:#fff;}.cls-3{fill:#aa090f;}</style></defs><title>fun-park_logo-v</title><g id="Слой_2" data-name="Слой 2"><g id="_1" data-name="1"><path class="cls-1" d="M16.64,39.26a.47.47,0,0,1,.48.48.48.48,0,0,1-.48.48.49.49,0,0,1-.48-.48A.48.48,0,0,1,16.64,39.26Z"/><path class="cls-1" d="M5.8,39.26a.48.48,0,0,1,.49.48.49.49,0,0,1-1,0A.48.48,0,0,1,5.8,39.26Z"/><path class="cls-2" d="M0,40.6V38.87H1.2v.41H.45v.24H1v.37H.45v.31h.78v.4Zm2.58,0-.06-.14H1.89l-.06.14H1.35l.78-1.76h.15l.78,1.76Zm-.22-.5-.15-.4-.16.4Zm1.06.5h.45V39.28h.52v-.41H2.9v.41h.52V40.6Zm4,0V38.87H8a1,1,0,0,1,.67.24.86.86,0,0,1,0,1.25A.88.88,0,0,1,8,40.6Zm.46-.4H8a.52.52,0,0,0,.35-.13.44.44,0,0,0,.13-.34.42.42,0,0,0-.13-.33A.51.51,0,0,0,8,39.28H7.85v.92Zm2.88.4h-.5l-.39-.53H9.65v.53H9.2V38.87h.68a.72.72,0,0,1,.48.17.56.56,0,0,1,.19.43.53.53,0,0,1-.28.49l.46.64ZM9.65,39.27v.4h.23a.25.25,0,0,0,.15-.05.22.22,0,0,0,0-.3.2.2,0,0,0-.15,0Zm1.26,1.33V38.87h.45V40.6Zm1.88-1.73h.45v1.76H13.1l-.94-.91v.88h-.45V38.84h.14l.94.9v-.87Zm2.44,1.73H14.7L14,39.74v.86h-.45V38.87H14v.79l.57-.79h.53l-.6.83.69.9Zm3,0V38.87h.68a.69.69,0,0,1,.48.17.53.53,0,0,1,.19.43.54.54,0,0,1-.19.43.72.72,0,0,1-.48.17H18.7v.53Zm.46-.93h.23a.21.21,0,0,0,.15-.35.2.2,0,0,0-.15,0H18.7v.4Zm1.14.93V38.87h.45V40.2H21v.4Zm2.46,0-.06-.14h-.62l-.06.14h-.49l.79-1.76H22l.79,1.76Zm-.22-.5-.15-.4-.15.4Zm2.14-1.23h-.5l-.32.61-.32-.61h-.5l.59,1.07v.66h.45v-.66Z"/><path class="cls-1" d="M12.08,0A8.94,8.94,0,1,1,3.15,8.93,8.93,8.93,0,0,1,12.08,0Z"/><path class="cls-3" d="M14.48,7l-.69.2V9.5l.61-.18c.35-.11.69-.19,1-.31a3.47,3.47,0,0,0,.94-.51,3.31,3.31,0,0,0,1.12-2.12A3.22,3.22,0,0,0,17,4.14a2.87,2.87,0,0,0-3.22-.91V5.67l.28-.08c.41-.13,1,0,1,.48A.88.88,0,0,1,14.48,7Z"/><polygon class="cls-2" points="10.05 13.94 12.76 13.22 11.77 9.54 13.79 8.93 13.79 6.63 11.2 7.38 10.82 5.99 13.79 5.11 13.79 2.68 7.5 4.43 10.05 13.94"/><path class="cls-2" d="M13.67,15.82a1.64,1.64,0,1,1-2-1.18A1.65,1.65,0,0,1,13.67,15.82Z"/><path class="cls-2" d="M14,32.49V31.38h.85a.57.57,0,0,1,.44.55.56.56,0,0,1-.52.55H14Zm5.89,3.37H18.14v-6H20v2.3l1.53-2.3h2.18l-2,2.78,2.13,3.19H21.6L20,33.26v2.6ZM2.16,32.49V31.38H3a.56.56,0,0,1-.09,1.1H2.16Zm-.09,3.37h.1V34H3.26a2,2,0,0,0,.32-4A2.47,2.47,0,0,0,3,29.89H.32v6Zm4.5,0H4.73l2.41-6H8.9l2.42,6h-2L8.9,34.68H7.07l-.42,1.18ZM8,32.06c-.13.4-.27.8-.42,1.21h.83c-.14-.41-.28-.81-.41-1.21Zm5.88,3.8H14V33.67l1.38,2.19h2l-1.55-2.45.22-.11A1.83,1.83,0,0,0,17,31.7,1.81,1.81,0,0,0,15.87,30a3.67,3.67,0,0,0-1.36-.14H12.14v6Z"/><path class="cls-2" d="M8.36,25.75a2.77,2.77,0,0,0,5.47.44,3,3,0,0,0,.07-.74V22.21H12.11v3.3c0,.1,0,.23,0,.33a1,1,0,0,1-1,.85,1,1,0,0,1-1-.84,1.13,1.13,0,0,1,0-.26V22.21H8.35v3.14c0,.13,0,.27,0,.4ZM3.43,28.19v-6H7.5V23.8H5.28v.76H7.07V26H5.28v2.24Zm17.2,0H19c-.75-1-1.42-1.91-2.2-3,0,1,0,1.92,0,3H14.91v-6h1.7c.76,1,1.53,2.07,2.27,3.12,0-1,0-2.08,0-3.12h1.86v6Z"/></g></g></svg>