<svg xmlns="http://www.w3.org/2000/svg" viewBox="0 0 82.27 21.76"><defs><style>.cls-1,.cls-2{fill:#e40005;}.cls-2,.cls-3,.cls-4{fill-rule:evenodd;}.cls-3{fill:#fff;}.cls-4{fill:#aa090f;}</style></defs><title>fun-park_logo-h</title><g id="Слой_2" data-name="Слой 2"><g id="_1" data-name="1"><circle class="cls-1" cx="72.72" cy="20.63" r="0.61"/><path class="cls-2" d="M59.08,20a.61.61,0,1,1-.61.6A.6.6,0,0,1,59.08,20Z"/><path class="cls-3" d="M51.77,21.72V19.54h1.51v.51h-.94v.31H53v.47h-.67v.38h1v.51Zm3.25,0-.08-.18h-.78l-.08.18h-.61l1-2.22h.18l1,2.22Zm-.28-.63-.19-.51-.19.51Zm1.34.63h.56V20.05h.66v-.51H55.42v.51h.66v1.67Zm5,0V19.54h.76a1.27,1.27,0,0,1,.86.3,1.1,1.1,0,0,1,0,1.58,1.15,1.15,0,0,1-.85.3Zm.57-.51h.19a.6.6,0,0,0,.44-.16.56.56,0,0,0,.17-.42.51.51,0,0,0-.17-.42.62.62,0,0,0-.44-.15h-.19v1.15Zm3.64.51h-.64l-.49-.67h-.24v.67h-.56V19.54h.85a.89.89,0,0,1,.61.21.74.74,0,0,1-.11,1.16l.58.81ZM63.92,20v.51h.3a.26.26,0,0,0,.19-.07.29.29,0,0,0,.07-.19.24.24,0,0,0-.26-.25Zm1.59,1.68V19.54h.57v2.18Zm2.37-2.18h.57v2.22h-.18l-1.19-1.14v1.1h-.57V19.5h.19l1.18,1.13V19.54ZM71,21.72h-.67l-.83-1.08v1.08h-.57V19.54h.57v1l.72-1h.66l-.75,1L71,21.72Zm3.8,0V19.54h.85a.89.89,0,0,1,.61.21.68.68,0,0,1,.23.54.68.68,0,0,1-.24.54.89.89,0,0,1-.6.22h-.28v.67Zm.57-1.17h.29a.26.26,0,0,0,.19-.07.29.29,0,0,0,.07-.19.24.24,0,0,0-.26-.25h-.29v.51Zm1.43,1.17V19.54h.57v1.67h.9v.51Zm3.11,0-.08-.18H79l-.08.18h-.61l1-2.22h.18l1,2.22Zm-.28-.63-.19-.51-.19.51Zm2.69-1.55h-.63l-.4.76-.41-.76H80.2L81,20.89v.83h.57v-.83Z"/><path class="cls-3" d="M69.42,11.58V10.15h1.1a.72.72,0,0,1-.12,1.42h-1ZM77,15.91H74.77V8.22h2.37v3l2-3h2.8L79.37,11.8l2.74,4.11H79.23l-2.09-3.35v3.35Zm-22.8-4.33V10.15h1.1a.72.72,0,0,1-.11,1.42h-1Zm-.13,4.33h.13V13.45h1.41A2.61,2.61,0,0,0,56,8.29a3.26,3.26,0,0,0-.7-.07H51.84v7.69Zm5.81,0H57.51l3.11-7.69h2.26c1,2.57,2.07,5.13,3.11,7.69H63.4l-.52-1.51H60.52L60,15.91ZM61.72,11c-.17.52-.35,1-.54,1.55h1.07c-.18-.51-.36-1-.53-1.55Zm7.57,4.89h.13V13.09l1.78,2.82h2.6l-2-3.15.28-.15a2.33,2.33,0,0,0-.22-4.2,4.72,4.72,0,0,0-1.76-.18h-3v7.69Z"/><path class="cls-2" d="M37.05,0A10.82,10.82,0,1,1,26.23,10.81,10.81,10.81,0,0,1,37.05,0Z"/><path class="cls-4" d="M40,8.45l-.83.24c0,.93,0,1.84,0,2.81l.73-.22c.43-.13.84-.23,1.24-.37a4.08,4.08,0,0,0,1.13-.62,4,4,0,0,0,1.36-2.57A3.89,3.89,0,0,0,43,5c-.78-1.15-2.21-1.51-3.89-1.1v3l.33-.1c.5-.16,1.16,0,1.22.58A1.08,1.08,0,0,1,40,8.45Z"/><polygon class="cls-3" points="34.59 16.88 37.87 16 36.67 11.55 39.12 10.81 39.12 8.03 35.97 8.94 35.52 7.25 39.12 6.19 39.12 3.25 31.5 5.36 34.59 16.88"/><path class="cls-3" d="M39,19.15a2,2,0,1,1-2.42-1.43A2,2,0,0,1,39,19.15Z"/><path class="cls-3" d="M6.34,12.78a3.57,3.57,0,0,0,7,.57,3.86,3.86,0,0,0,.09-1V8.22H11.16v4.25a3.12,3.12,0,0,1,0,.43,1.26,1.26,0,0,1-2.5,0,1.82,1.82,0,0,1,0-.33V8.22H6.33v4a4.51,4.51,0,0,0,0,.52ZM0,15.91V8.22H5.24v2H2.38v1h2.3V13H2.38v2.87Zm22.13,0H20c-1-1.33-1.83-2.44-2.83-3.81,0,1.34,0,2.47,0,3.81h-2.4V8.22H17c1,1.34,2,2.66,2.93,4,0-1.34,0-2.68,0-4h2.4v7.69Z"/></g></g></svg>