<svg width="30" height="30" viewBox="0 0 30 30" fill="none" xmlns="http://www.w3.org/2000/svg">
<circle cx="15" cy="15" r="14" fill="white"/>
<path d="M19.4707 7.98145H10.5293C9.10216 7.98145 7.94104 9.14257 7.94104 10.5697V19.5111C7.94104 20.9383 9.10216 22.0997 10.5293 22.0997H19.4707C20.8979 22.0997 22.0593 20.9386 22.0593 19.5111V10.5697C22.0593 9.14257 20.8982 7.98145 19.4707 7.98145ZM15 19.6883C12.4375 19.6883 10.3525 17.6033 10.3525 15.0404C10.3525 12.4779 12.4375 10.3929 15 10.3929C17.5629 10.3929 19.6479 12.4779 19.6479 15.0404C19.6479 17.603 17.5626 19.6883 15 19.6883ZM19.7973 11.3538C19.1906 11.3538 18.6973 10.8605 18.6973 10.2542C18.6973 9.64793 19.1906 9.1546 19.7973 9.1546C20.4036 9.1546 20.8969 9.64793 20.8969 10.2542C20.8969 10.8605 20.4036 11.3538 19.7973 11.3538Z" fill="#00456F"/>
<path d="M14.9999 12.3569C13.5206 12.3569 12.316 13.5608 12.316 15.0401C12.316 16.5201 13.5206 17.7244 14.9999 17.7244C16.4799 17.7244 17.6835 16.5201 17.6835 15.0401C17.6835 13.5612 16.4796 12.3569 14.9999 12.3569Z" fill="#00456F"/>
<path d="M15 0C6.71606 0 0 6.71606 0 15C0 23.2839 6.71606 30 15 30C23.2839 30 30 23.2839 30 15C30 6.71606 23.2839 0 15 0ZM24.0229 19.5111C24.0229 22.0215 21.9811 24.0634 19.4707 24.0634H10.5293C8.01923 24.0634 5.97707 22.0215 5.97707 19.5111V10.5698C5.97707 8.05967 8.01923 6.01751 10.5293 6.01751H19.4707C21.9811 6.01751 24.0229 8.05967 24.0229 10.5698V19.5111Z" fill="#00456F"/>
</svg>
