<svg width="41" height="40" viewBox="0 0 41 40" fill="none" xmlns="http://www.w3.org/2000/svg">
<g clip-path="url(#clip0)">
<path fill-rule="evenodd" clip-rule="evenodd" d="M40.7408 20C40.7408 8.95432 31.7865 0 20.7408 0C9.69504 0 0.740723 8.95432 0.740723 20C0.740723 8.95476 9.69548 0 20.7408 0C31.786 0 40.7408 8.95476 40.7408 20ZM14.7795 10.6419H26.7013C28.6047 10.6419 30.1528 12.1901 30.1528 14.093V26.0149C30.1528 27.9182 28.6042 29.4664 26.7013 29.4664H14.7795C12.8766 29.4664 11.3284 27.9178 11.3284 26.0149V14.093C11.3284 12.1901 12.8766 10.6419 14.7795 10.6419ZM14.5437 20.0539C14.5437 23.4711 17.3237 26.2511 20.7404 26.2511C24.1572 26.2511 26.9375 23.4707 26.9375 20.0539C26.9375 16.6372 24.1576 13.8573 20.7404 13.8573C17.3237 13.8573 14.5437 16.6372 14.5437 20.0539ZM25.6701 13.6723C25.6701 14.4807 26.3279 15.1385 27.1367 15.1385C27.9451 15.1385 28.6029 14.4807 28.6029 13.6723C28.6029 12.8639 27.9451 12.2062 27.1367 12.2062C26.3279 12.2062 25.6701 12.8639 25.6701 13.6723ZM20.7403 16.4759C18.7679 16.4759 17.1618 18.0811 17.1618 20.0536C17.1618 22.0269 18.7679 23.6325 20.7403 23.6325C22.7136 23.6325 24.3184 22.0269 24.3184 20.0536C24.3184 18.0816 22.7131 16.4759 20.7403 16.4759ZM26.7017 32.0845C30.0489 32.0845 32.7713 29.3621 32.7713 26.0149V14.093C32.7713 10.7462 30.0489 8.02336 26.7017 8.02336H14.7798C11.433 8.02336 8.71016 10.7462 8.71016 14.093V26.0149C8.71016 29.3621 11.433 32.0845 14.7798 32.0845H26.7017Z" fill="white"/>
</g>
<defs>
<clipPath id="clip0">
<rect x="0.709961" width="40.0001" height="40.0001" fill="white"/>
</clipPath>
</defs>
</svg>
