<svg width="30" height="30" viewBox="0 0 30 30" fill="none" xmlns="http://www.w3.org/2000/svg">
<path fill-rule="evenodd" clip-rule="evenodd" d="M3 12.0252C3 5.39623 8.38212 0 14.9937 0C21.6053 0 26.9875 5.39623 27 12.0252C27 12.4713 26.8735 12.8208 26.7415 13.1853C26.6503 13.4373 26.5564 13.6966 26.5 14C26.4983 14.0123 26.5014 14.0389 26.5057 14.0759C26.5169 14.1716 26.5362 14.3366 26.5 14.5C26.3446 15.1985 25.9812 15.9728 25.6596 16.6581C25.6048 16.7749 25.5512 16.8892 25.5 17C24.2078 20.0503 21.729 24.4811 15.5 29.5C15.3432 29.6258 15 30 15 30C15 30 14.6568 29.6258 14.5 29.5C8.26477 24.4811 5.79221 20.0503 4.5 17C4.45089 16.8936 4.39952 16.784 4.34698 16.6718C4.02376 15.9819 3.65648 15.1979 3.5 14.5C3.47771 14.3994 3.53177 14.2338 3.57365 14.1054C3.62606 13.9448 3.65939 13.8427 3.5 14C3.44194 13.7014 3.34965 13.4455 3.26008 13.1972C3.12704 12.8284 3 12.4762 3 12.0252ZM15.0312 18C18.345 18 21.0312 15.3137 21.0312 12C21.0312 8.68629 18.345 6 15.0312 6C11.7175 6 9.03125 8.68629 9.03125 12C9.03125 15.3137 11.7175 18 15.0312 18Z" fill="#E40005"/>
<path d="M14.9937 0C8.38212 0 3 5.33472 3 11.8881C3 12.6342 3.069 13.3865 3.21328 14.1202C3.21955 14.1637 3.24464 14.2943 3.29482 14.5181C3.47674 15.3202 3.74647 16.1099 4.09775 16.8622C5.38996 19.8777 8.76474 25.0383 15 30C21.2289 25.0383 24.61 19.8777 25.9022 16.8622C26.2535 16.1099 26.5233 15.3264 26.7052 14.5181C26.7554 14.2943 26.7804 14.1637 26.7867 14.1202C26.9247 13.3865 27 12.6342 27 11.8881C26.9875 5.33472 21.6053 0 14.9937 0ZM25.1056 13.828C25.1056 13.8404 25.0993 13.8529 25.0993 13.8653C25.093 13.8964 25.0742 13.9897 25.0429 14.1327C25.0429 14.1389 25.0429 14.1389 25.0429 14.1451C24.886 14.8415 24.6539 15.5192 24.3466 16.172C24.3403 16.1783 24.3403 16.1907 24.334 16.1969C23.161 18.9513 20.5891 23.1544 14.9937 27.7368C9.39833 23.1544 6.82645 18.9513 5.65342 16.1969C5.64715 16.1907 5.64715 16.1783 5.64088 16.172C5.33978 15.5254 5.10768 14.8415 4.94459 14.1451C4.94459 14.1389 4.94459 14.1389 4.94459 14.1327C4.90695 13.9897 4.89441 13.8964 4.88813 13.8653C4.88813 13.8529 4.88186 13.8404 4.88186 13.8218C4.7564 13.1814 4.69367 12.5347 4.69367 11.8819C4.69367 6.25493 9.31678 1.67254 14.9937 1.67254C20.6707 1.67254 25.2938 6.25493 25.2938 11.8819C25.2938 12.5409 25.2311 13.1938 25.1056 13.828Z" fill="white"/>
<path d="M14.9937 4.47046C10.7971 4.47046 7.37842 7.85906 7.37842 12.0187C7.37842 16.1782 10.7971 19.5668 14.9937 19.5668C19.1902 19.5668 22.6089 16.1782 22.6089 12.0187C22.6089 7.85906 19.1902 4.47046 14.9937 4.47046ZM14.9937 17.8881C11.7255 17.8881 9.07209 15.2518 9.07209 12.0187C9.07209 8.78549 11.7318 6.14922 14.9937 6.14922C18.2556 6.14922 20.9153 8.78549 20.9153 12.0187C20.9153 15.2518 18.2618 17.8881 14.9937 17.8881Z" fill="white"/>
</svg>
