<svg width="30" height="30" viewBox="0 0 30 30" fill="none" xmlns="http://www.w3.org/2000/svg">
<path d="M14.8881 0C8.33472 0 3 5.33472 3 11.8881C3 12.6342 3.06839 13.3865 3.2114 14.1202C3.21762 14.1637 3.24249 14.2943 3.29223 14.5181C3.47254 15.3202 3.7399 16.1099 4.08808 16.8622C5.36892 19.8777 8.71397 25.0383 14.8943 30C21.0684 25.0383 24.4197 19.8777 25.7005 16.8622C26.0487 16.1099 26.3161 15.3264 26.4964 14.5181C26.5461 14.2943 26.571 14.1637 26.5772 14.1202C26.714 13.3865 26.7886 12.6342 26.7886 11.8881C26.7762 5.33472 21.4415 0 14.8881 0ZM24.9109 13.828C24.9109 13.8404 24.9047 13.8529 24.9047 13.8653C24.8985 13.8964 24.8798 13.9897 24.8487 14.1327C24.8487 14.1389 24.8487 14.1389 24.8487 14.1451C24.6933 14.8415 24.4632 15.5192 24.1586 16.172C24.1524 16.1783 24.1524 16.1907 24.1461 16.1969C22.9834 18.9513 20.4342 23.1544 14.8881 27.7368C9.34198 23.1544 6.79275 18.9513 5.63006 16.1969C5.62384 16.1907 5.62384 16.1783 5.61762 16.172C5.31917 15.5254 5.08912 14.8415 4.92746 14.1451C4.92746 14.1389 4.92746 14.1389 4.92746 14.1327C4.89016 13.9897 4.87772 13.8964 4.87151 13.8653C4.87151 13.8529 4.86529 13.8404 4.86529 13.8218C4.74093 13.1814 4.67876 12.5347 4.67876 11.8819C4.67876 6.25493 9.26115 1.67254 14.8881 1.67254C20.5151 1.67254 25.0974 6.25493 25.0974 11.8819C25.0974 12.5409 25.0353 13.1938 24.9109 13.828Z" fill="white"/>
<path d="M14.888 4.47046C10.7284 4.47046 7.33984 7.85906 7.33984 12.0187C7.33984 16.1782 10.7284 19.5668 14.888 19.5668C19.0476 19.5668 22.4362 16.1782 22.4362 12.0187C22.4362 7.85906 19.0476 4.47046 14.888 4.47046ZM14.888 17.8881C11.6487 17.8881 9.0186 15.2518 9.0186 12.0187C9.0186 8.78549 11.6549 6.14922 14.888 6.14922C18.1212 6.14922 20.7575 8.78549 20.7575 12.0187C20.7575 15.2518 18.1274 17.8881 14.888 17.8881Z" fill="white"/>
</svg>
