<svg width="89" height="136" viewBox="0 0 89 136" fill="none" xmlns="http://www.w3.org/2000/svg">
<path fill-rule="evenodd" clip-rule="evenodd" d="M44.5007 0C63.1879 0 78.3121 15.1482 78.3121 33.7837C78.3121 52.4192 63.1515 67.5674 44.5007 67.5674C25.8136 67.5674 10.6895 52.4192 10.6895 33.7837C10.6895 15.1482 25.8136 0 44.5007 0Z" fill="#E40005"/>
<path fill-rule="evenodd" clip-rule="evenodd" d="M53.5883 26.4095C52.2068 26.8091 51.407 27.027 50.9707 27.1723C50.9707 30.0785 50.9707 32.9483 50.9707 35.9634C51.1888 35.927 52.1341 35.6001 53.2612 35.2732C54.6063 34.8736 55.8788 34.5466 57.1513 34.1107C58.351 33.6748 59.5144 33.0936 60.6778 32.1854C63.0773 30.3327 64.4951 27.136 64.9314 24.1572C65.3313 21.2148 64.8224 18.1634 63.15 15.6932C60.7141 12.0968 56.2424 10.9707 51.0071 12.2421V16.4923C51.0071 18.1634 51.0071 19.798 51.0071 21.4691C51.407 21.3601 51.6979 21.2511 52.0615 21.1421C53.6248 20.6699 55.697 21.0332 55.8788 22.9585C55.9515 24.4478 55.0062 25.9372 53.5883 26.4095Z" fill="#AA090F"/>
<path fill-rule="evenodd" clip-rule="evenodd" d="M36.7926 52.7463L47.0452 50.0218L43.3367 36.0724L50.9716 33.7838V25.0655L41.1554 27.9353L39.7375 22.6679L50.9716 19.3259V10.1353L27.1582 16.7467L36.7926 52.7463Z" fill="white"/>
<path fill-rule="evenodd" clip-rule="evenodd" d="M50.4997 59.83C51.3722 63.1357 49.3364 66.5141 46.0279 67.3859C42.7195 68.2214 39.3383 66.2598 38.4658 62.9178C37.6296 59.6121 39.5929 56.2337 42.9376 55.3619C46.2461 54.5263 49.6635 56.5243 50.4997 59.83Z" fill="white"/>
<path fill-rule="evenodd" clip-rule="evenodd" d="M51.6986 122.929V118.715C52.6438 118.715 53.4436 118.715 54.3889 118.715C54.5707 118.715 54.7524 118.715 54.9342 118.751C55.8795 118.969 56.5703 119.805 56.5703 120.785C56.5703 121.912 55.6977 122.82 54.607 122.892C54.498 122.892 54.3889 122.892 54.3162 122.892C53.4073 122.929 52.6075 122.929 51.6986 122.929ZM74.0213 135.643H67.4045V113.048H74.3848V121.766L80.1655 113.048H88.4184L80.9289 123.583L89 135.679H80.5291L74.3848 125.835V135.679H74.0213V135.643ZM6.94406 122.929V118.715C7.88932 118.715 8.68912 118.715 9.63438 118.715C9.81616 118.715 9.99792 118.715 10.1797 118.751C11.125 118.969 11.8158 119.805 11.8158 120.785C11.8158 121.912 10.9432 122.82 9.85251 122.892C9.74344 122.892 9.63442 122.892 9.56171 122.892C8.61645 122.929 7.85296 122.929 6.94406 122.929ZM6.58047 135.643H6.98034V128.378H9.99797C10.3615 128.378 10.7614 128.378 11.125 128.378C15.1242 128.123 18.2872 124.781 18.2872 120.713C18.2872 117.044 15.7422 113.992 12.3247 113.23C11.6339 113.084 10.9795 113.048 10.2888 113.048C6.87128 113.048 3.45384 113.048 0 113.048V135.643H6.58047ZM23.6316 135.643H16.6148L25.7766 113.048H32.4297C35.4836 120.568 38.5376 128.123 41.5915 135.643H33.9931L32.4661 131.175H25.522L23.9224 135.643H23.6316ZM29.0486 121.258C28.5396 122.783 27.9943 124.309 27.4489 125.835H30.5756C30.0666 124.309 29.5212 122.783 29.0486 121.258ZM51.2986 135.643H51.6986V127.361L56.9339 135.643H64.5686L58.6789 126.343C58.9334 126.198 59.2243 126.089 59.5151 125.944C61.6238 124.781 63.1144 122.529 63.1144 119.914C63.1144 117.044 61.3693 114.61 58.8608 113.557C57.2974 112.903 55.3342 113.048 53.6981 113.048C50.7169 113.048 47.7357 113.048 44.7181 113.048V135.643H51.2986Z" fill="white"/>
<path fill-rule="evenodd" clip-rule="evenodd" d="M30.393 97.4279C30.7565 102.913 35.3011 107.236 40.8636 107.236C45.8444 107.236 50.0254 103.749 51.1161 99.099C51.3342 98.1181 51.3706 97.2826 51.3706 96.3018V84.0234H44.5719V96.5198C44.5719 96.9194 44.6083 97.3916 44.5356 97.7912C44.2811 99.6075 42.7541 101.024 40.8636 101.024C38.9731 101.024 37.4461 99.6439 37.1916 97.8275C37.1552 97.5006 37.1553 97.1736 37.1553 96.8467V84.0598H30.3567V95.9385C30.3567 96.4108 30.3566 96.9194 30.393 97.4279ZM11.7422 106.619V84.0234H27.1573V90.0536H18.7226V92.9598H25.4848V98.2271H18.7226V106.655H11.7422V106.619ZM76.8563 106.619H70.5303C67.6945 102.695 65.1495 99.4259 62.2047 95.43C62.2774 99.3532 62.2411 102.695 62.2411 106.619H55.188V84.0234H61.5867C64.4588 87.9467 67.4037 91.8336 70.2031 95.8296C70.1304 91.9063 70.1667 87.9467 70.1667 84.0234H77.2198V106.619H76.8563Z" fill="white"/>
</svg>
