<svg width="74" height="128" viewBox="0 0 74 128" fill="none" xmlns="http://www.w3.org/2000/svg">
<path fill-rule="evenodd" clip-rule="evenodd" d="M1.57128 127.906V121.984H3.11232V127.906H1.57128ZM0.24176 120.563C0.24176 120.322 0.33241 120.14 0.513708 119.959C0.695006 119.778 0.876305 119.717 1.11804 119.717C1.35977 119.717 1.57128 119.808 1.75258 119.959C1.93388 120.11 1.99431 120.322 1.99431 120.563C1.99431 120.775 1.90366 120.986 1.72236 121.137C1.54107 121.319 1.32955 121.379 1.08782 121.379C0.846089 121.379 0.66479 121.289 0.483492 121.137C0.302193 120.956 0.24176 120.775 0.24176 120.563ZM2.68929 120.563C2.68929 120.322 2.77994 120.14 2.96124 119.959C3.14254 119.778 3.32383 119.717 3.56557 119.717C3.8073 119.717 4.01881 119.808 4.20011 119.959C4.38141 120.11 4.44184 120.322 4.44184 120.563C4.44184 120.775 4.35119 120.986 4.16989 121.137C3.9886 121.319 3.77708 121.379 3.53535 121.379C3.29362 121.379 3.11232 121.289 2.93102 121.137C2.77994 120.986 2.68929 120.775 2.68929 120.563ZM12.7211 127.906H10.9082L9.00452 124.975V127.906H7.46348V124.975L5.55985 127.906H3.71665L5.92245 124.824L3.86773 121.984H5.68071L7.46348 124.643V121.984H9.00452V124.643L10.7873 121.984H12.5701L10.5153 124.794L12.7211 127.906ZM23.4177 127.906V121.984H28.5848V127.906H27.0437V123.373H24.9588V127.906H23.4177ZM34.5374 121.863H35.0209V127.906H33.4798V124.824L30.2769 128.027H29.7632V121.984H31.3042V125.035L34.5374 121.863ZM40.9735 121.863H41.4569V127.906H39.9159V124.824L36.713 128.027H36.2295V121.984H37.7705V125.035L40.9735 121.863ZM37.4684 119.808V119.717H38.677V119.838C38.677 120.201 38.8281 120.382 39.1303 120.382C39.4324 120.382 39.5835 120.201 39.5835 119.838V119.717H40.7922V119.808C40.7922 120.291 40.6411 120.714 40.3389 121.017C40.0368 121.319 39.6137 121.47 39.1303 121.47C38.6468 121.47 38.2238 121.319 37.9216 121.017C37.6195 120.684 37.4684 120.291 37.4684 119.808ZM52.7277 127.906V121.984H56.7162V123.373H54.2687V127.906H52.7277ZM57.5321 127.906V121.984H59.8587C60.5235 121.984 61.0674 122.165 61.4904 122.558C61.9135 122.92 62.125 123.434 62.125 124.038C62.125 124.643 61.9135 125.126 61.4602 125.519C61.0372 125.912 60.4631 126.093 59.8285 126.093H59.0429V127.936H57.5321V127.906ZM59.0731 124.703H59.8587C60.0703 124.703 60.2516 124.643 60.3724 124.522C60.4933 124.401 60.5537 124.22 60.5537 124.008C60.5537 123.797 60.4933 123.615 60.3724 123.494C60.2516 123.373 60.0703 123.313 59.8587 123.313H59.0731V124.703ZM65.902 127.906H67.5639L64.8747 121.863H64.3912L61.7019 127.906H63.3638L63.5754 127.422H65.6905L65.902 127.906ZM65.1466 126.153H64.1193L64.6329 124.763L65.1466 126.153ZM72.9424 121.863H73.4259V127.906H71.8849V124.824L68.6517 128.027H68.1683V121.984H69.7093V125.035L72.9424 121.863ZM69.4373 119.808V119.717H70.646V119.838C70.646 120.201 70.7971 120.382 71.0993 120.382C71.4014 120.382 71.5525 120.201 71.5525 119.838V119.717H72.7612V119.808C72.7612 120.291 72.6101 120.714 72.3079 121.017C72.0057 121.319 71.5827 121.47 71.0993 121.47C70.6158 121.47 70.1928 121.319 69.8906 121.017C69.5884 120.684 69.4373 120.291 69.4373 119.808Z" fill="white"/>
<path fill-rule="evenodd" clip-rule="evenodd" d="M47.047 123.162C47.9535 123.162 48.7089 123.887 48.7089 124.824C48.7089 125.731 47.9837 126.486 47.047 126.486C46.1405 126.486 45.3851 125.761 45.3851 124.824C45.3851 123.887 46.1405 123.162 47.047 123.162Z" fill="#E40005"/>
<path fill-rule="evenodd" clip-rule="evenodd" d="M17.8277 123.162C18.7342 123.162 19.4896 123.887 19.4896 124.824C19.4896 125.731 18.7644 126.486 17.8277 126.486C16.9212 126.486 16.1658 125.761 16.1658 124.824C16.1658 123.887 16.9212 123.162 17.8277 123.162Z" fill="#E40005"/>
<path fill-rule="evenodd" clip-rule="evenodd" d="M37.0151 0C52.5463 0 65.1163 12.6002 65.1163 28.1013C65.1163 43.6023 52.5463 56.2025 37.0151 56.2025C21.4838 56.2025 8.91382 43.6023 8.91382 28.1013C8.91382 12.6002 21.4838 0 37.0151 0Z" fill="#E40005"/>
<path fill-rule="evenodd" clip-rule="evenodd" d="M44.539 21.9676C43.3908 22.3 42.726 22.4813 42.3634 22.6021C42.3634 25.0194 42.3634 27.4065 42.3634 29.9145C42.5447 29.8843 43.3303 29.6123 44.267 29.3404C45.385 29.008 46.4426 28.7361 47.5002 28.3735C48.4973 28.0109 49.4643 27.5274 50.4312 26.772C52.4255 25.231 53.6039 22.5719 53.9665 20.0942C54.2989 17.6466 53.8759 15.1085 52.4859 13.0537C50.4614 10.0623 46.7448 9.1256 42.3634 10.1832V13.7185C42.3634 15.1085 42.3634 16.4682 42.3634 17.8581C42.6958 17.7675 42.9375 17.6769 43.2397 17.5862C44.539 17.1934 46.2613 17.4956 46.4124 19.097C46.5333 20.3359 45.7476 21.5748 44.539 21.9676Z" fill="#AA090F"/>
<path fill-rule="evenodd" clip-rule="evenodd" d="M30.6092 43.8745L39.1302 41.6083L36.0481 30.0052L42.3936 28.1016V20.8496L34.2049 23.2367L33.0567 18.8553L42.3936 16.0754V8.43066L22.6018 13.9301L30.6092 43.8745Z" fill="white"/>
<path fill-rule="evenodd" clip-rule="evenodd" d="M42.0008 49.7667C42.6958 52.5164 41.0641 55.3266 38.2842 56.0518C35.5345 56.7467 32.7244 55.0848 31.9992 52.3351C31.274 49.5854 32.9359 46.7753 35.7158 46.0501C38.4655 45.3551 41.2756 47.017 42.0008 49.7667Z" fill="white"/>
<path fill-rule="evenodd" clip-rule="evenodd" d="M42.998 102.252V98.7472C43.7836 98.7472 44.4483 98.7472 45.234 98.7472C45.3851 98.7472 45.5361 98.7472 45.6872 98.7774C46.4728 98.9587 47.047 99.6537 47.047 100.47C47.047 101.406 46.3218 102.162 45.4153 102.222C45.3246 102.222 45.234 102.222 45.1735 102.222C44.4181 102.252 43.7534 102.252 42.998 102.252ZM61.5508 112.828H56.0514V94.0334H61.853V101.285L66.6574 94.0334H73.5165L67.292 102.796L74 112.858H66.9596L61.853 104.67V112.858H61.5508V112.828ZM5.80155 102.252V98.7472C6.58717 98.7472 7.25194 98.7472 8.03756 98.7472C8.18864 98.7472 8.33973 98.7472 8.49081 98.7774C9.27643 98.9587 9.85055 99.6537 9.85055 100.47C9.85055 101.406 9.12535 102.162 8.21886 102.222C8.12821 102.222 8.03756 102.222 7.97713 102.222C7.1915 102.252 6.55696 102.252 5.80155 102.252ZM5.49938 112.828H5.83176V106.785H8.33973C8.64189 106.785 8.97427 106.785 9.27643 106.785C12.6002 106.573 15.2291 103.793 15.2291 100.409C15.2291 97.3874 13.1139 94.819 10.2736 94.1845C9.69947 94.0636 9.15557 94.0334 8.58146 94.0334C5.74111 94.0334 2.90077 94.0334 0.0302124 94.0334V112.828H5.49938ZM19.6709 112.828H13.8693L21.4839 94.0334H27.0135C29.5516 100.288 32.0898 106.573 34.628 112.828H28.2826L27.0135 109.111H21.2421L19.9126 112.828H19.6709ZM24.1731 100.862C23.7501 102.131 23.2969 103.401 22.8436 104.67H25.4422C25.0192 103.401 24.5659 102.131 24.1731 100.862ZM42.6656 112.828H42.998V105.939L47.3491 112.828H53.6946L48.7995 105.093C49.011 104.972 49.2528 104.881 49.4945 104.76C51.247 103.793 52.4859 101.92 52.4859 99.7443C52.4859 97.3572 51.0355 95.3327 48.9506 94.4564C47.6513 93.9125 46.0196 94.0334 44.6599 94.0334C42.1821 94.0334 39.7044 94.0334 37.1964 94.0334V112.828H42.6656Z" fill="white"/>
<path fill-rule="evenodd" clip-rule="evenodd" d="M25.2911 81.0405C25.5933 85.6032 29.3703 89.1989 33.9934 89.1989C38.1331 89.1989 41.608 86.2981 42.5145 82.4304C42.6958 81.6146 42.726 80.9196 42.726 80.1038V69.9208H37.0755V80.3153C37.0755 80.6477 37.1057 81.0405 37.0453 81.3729C36.8338 82.8837 35.5647 84.0621 33.9934 84.0621C32.4222 84.0621 31.1531 82.9139 30.9416 81.4031C30.9114 81.1311 30.9114 80.8592 30.9114 80.5872V69.9511H25.2609V79.8318C25.2609 80.1944 25.2609 80.6175 25.2911 81.0405ZM9.7901 88.6852V69.8906H22.6019V74.9066H15.5917V77.3239H21.2119V81.7053H15.5917V88.7155H9.7901V88.6852ZM63.9077 88.6852H58.65C56.2932 85.4219 54.178 82.7024 51.7305 79.3786C51.7909 82.642 51.7607 85.4219 51.7607 88.6852H45.9289V69.8906H51.247C53.6341 73.154 56.0816 76.3872 58.4083 79.711C58.3781 76.4476 58.3781 73.154 58.3781 69.8906H64.2401V88.6852H63.9077Z" fill="white"/>
</svg>
