<svg width="155" height="51" viewBox="0 0 155 51" fill="none" xmlns="http://www.w3.org/2000/svg">
<path fill-rule="evenodd" clip-rule="evenodd" d="M130.203 26.8861V24.3002C130.805 24.3002 131.312 24.3002 131.914 24.3002C132.046 24.3002 132.158 24.3002 132.271 24.3364C132.873 24.463 133.305 24.9874 133.305 25.6022C133.305 26.2894 132.76 26.8499 132.046 26.8861C131.989 26.8861 131.914 26.8861 131.858 26.8861C131.275 26.8861 130.786 26.8861 130.203 26.8861ZM144.432 34.7161H140.222V20.8282H144.677V26.1628L148.361 20.8282H153.624L148.85 27.2839L154 34.698H148.587L144.677 28.6583V34.698H144.432V34.7161ZM101.67 26.8861V24.3002C102.272 24.3002 102.779 24.3002 103.381 24.3002C103.512 24.3002 103.625 24.3002 103.738 24.3364C104.339 24.463 104.772 24.9874 104.772 25.6022C104.772 26.2894 104.227 26.8499 103.512 26.8861C103.456 26.8861 103.381 26.8861 103.324 26.8861C102.742 26.8861 102.253 26.8861 101.67 26.8861ZM101.426 34.7161H101.67V30.2677H103.588C103.832 30.2677 104.058 30.2677 104.302 30.2496C106.858 30.0868 108.869 28.0434 108.869 25.548C108.869 23.3056 107.253 21.425 105.073 20.9548C104.621 20.8644 104.227 20.8282 103.776 20.8282C101.595 20.8282 99.4148 20.8282 97.2344 20.8282V34.698H101.426V34.7161ZM112.309 34.7161H107.854L113.7 20.8463H117.929C119.884 25.4756 121.82 30.1049 123.775 34.7161H118.926L117.948 31.9675H113.531L112.516 34.7161H112.309ZM115.749 25.8735C115.429 26.8138 115.091 27.7541 114.734 28.6763H116.726C116.407 27.7541 116.069 26.8138 115.749 25.8735ZM129.959 34.7161H130.203V29.6167L133.53 34.7161H138.399L134.639 29.0199C134.809 28.9476 134.997 28.8572 135.166 28.7668C136.519 28.0615 137.44 26.6691 137.459 25.0597C137.459 23.3056 136.35 21.8047 134.752 21.1718C133.756 20.774 132.515 20.8463 131.463 20.8463C129.564 20.8463 127.647 20.8282 125.749 20.8282V34.698H129.959V34.7161Z" fill="white"/>
<path d="M77.1833 43.5598C87.5432 39.4628 92.4893 28.0618 88.2306 18.0951C83.9719 8.1283 72.1212 3.36996 61.7612 7.46701C51.4013 11.5641 46.4553 22.965 50.7139 32.9318C54.9726 42.8986 66.8233 47.6569 77.1833 43.5598Z" fill="#E40005"/>
<path fill-rule="evenodd" clip-rule="evenodd" d="M74.9229 21.2441C74.0959 21.4792 73.6071 21.6058 73.3628 21.6781C73.3628 23.3598 73.3628 25.0054 73.3628 26.7414C73.4944 26.7052 74.0771 26.5425 74.7349 26.3436C75.5432 26.1085 76.3139 25.9277 77.0657 25.6745C77.78 25.4213 78.4943 25.0958 79.1897 24.5714C80.6183 23.4864 81.4829 21.66 81.7461 19.9421C81.9904 18.2423 81.6709 16.4882 80.6746 15.0597C79.2085 12.9982 76.5394 12.3472 73.3816 13.0705V15.5298C73.3816 16.4882 73.3816 17.4466 73.3816 18.4051C73.6259 18.3327 73.7951 18.2966 74.0019 18.2242C74.9417 17.953 76.1823 18.17 76.2763 19.273C76.3514 20.123 75.7875 20.9729 74.9229 21.2441Z" fill="#AA090F"/>
<path fill-rule="evenodd" clip-rule="evenodd" d="M64.867 36.4521L71.0134 34.8789L68.7766 26.8319L73.363 25.4937V20.4847L67.4609 22.1303L66.615 19.0742L73.363 17.1574V11.859L59.0776 15.6746L64.867 36.4521Z" fill="white"/>
<path fill-rule="evenodd" clip-rule="evenodd" d="M73.0809 40.557C73.5884 42.4738 72.3854 44.4268 70.4118 44.9151C68.4194 45.4033 66.3893 44.246 65.8818 42.3292C65.3743 40.4123 66.5773 38.4594 68.5509 37.9711C70.5434 37.4829 72.5734 38.6402 73.0809 40.557Z" fill="white"/>
<path fill-rule="evenodd" clip-rule="evenodd" d="M11.8794 29.0561C12.105 32.4196 15.0184 35.0778 18.571 35.0778C21.7476 35.0778 24.4167 32.944 25.0934 30.0688C25.2249 29.472 25.2625 28.9476 25.2625 28.3509V20.8282H20.9393V28.4955C20.9393 28.7306 20.9581 29.0199 20.9205 29.2731C20.7702 30.3943 19.774 31.2442 18.571 31.2442C17.368 31.2442 16.3906 30.3943 16.2214 29.2912C16.1838 29.0923 16.2026 28.8933 16.2026 28.6944V20.8282H11.8794V28.1158C11.8606 28.4413 11.8606 28.7487 11.8794 29.0561ZM0 34.7161V20.8282H9.83059V24.5172H4.45478V26.2894H8.77798V29.5082H4.45478V34.698H0V34.7161ZM41.5027 34.7161H37.4803C35.657 32.3111 34.0593 30.3038 32.1797 27.8445C32.2173 30.2677 32.2173 32.3111 32.2173 34.7161H27.7249V20.8282H31.8037C33.6458 23.2333 35.5067 25.6384 37.2923 28.0796C37.2547 25.6565 37.2735 23.2514 37.2735 20.8282H41.7659V34.698H41.5027V34.7161Z" fill="white"/>
<path fill-rule="evenodd" clip-rule="evenodd" d="M97.9298 45.9276V41.5154H99.1328V45.9276H97.9298ZM96.896 40.4484C96.896 40.2676 96.9712 40.1229 97.1028 40.0145C97.2343 39.8879 97.3847 39.8336 97.5727 39.8336C97.7606 39.8336 97.9298 39.8879 98.0614 40.0145C98.193 40.141 98.2681 40.2857 98.2681 40.4665C98.2681 40.6293 98.193 40.7739 98.0614 40.9005C97.9298 41.0271 97.7606 41.0814 97.5727 41.0814C97.4035 41.0814 97.2343 41.0271 97.1028 40.9005C96.9524 40.7559 96.896 40.6112 96.896 40.4484ZM98.7945 40.4665C98.7945 40.2857 98.8696 40.141 99.0012 40.0325C99.1328 39.906 99.302 39.8517 99.4711 39.8517C99.6591 39.8517 99.8283 39.906 99.9598 40.0325C100.091 40.1591 100.167 40.3038 100.167 40.4846C100.167 40.6474 100.091 40.792 99.9598 40.9186C99.8283 41.0452 99.6591 41.0994 99.4711 41.0994C99.302 41.0994 99.1328 41.0452 99.0012 40.9186C98.8696 40.7739 98.7945 40.6293 98.7945 40.4665ZM106.557 45.9276H105.148L103.682 43.7396V45.9276H102.479V43.7396L101.012 45.9276H99.6027L101.313 43.6311L99.7155 41.5154H101.106L102.479 43.5045V41.5154H103.682V43.5045L105.054 41.5154H106.445L104.847 43.6311L106.557 45.9276ZM114.828 45.9276V41.5154H118.832V45.9276H117.629V42.5461H116.031V45.9276H114.828ZM123.437 41.4249H123.813V45.9276H122.61V43.6311L120.129 46H119.753V41.4973H120.956V43.7577L123.437 41.4249ZM128.418 41.4249H128.794V45.9276H127.591V43.6311L125.11 46H124.734V41.4973H125.937V43.7577L128.418 41.4249ZM125.692 39.8879V39.8336H126.632V39.924C126.632 40.1953 126.745 40.3219 126.989 40.3219C127.234 40.3219 127.346 40.1953 127.346 39.924V39.8336H128.286V39.8879C128.286 40.2495 128.173 40.5569 127.929 40.792C127.685 41.0271 127.384 41.1356 126.989 41.1356C126.613 41.1356 126.294 41.0271 126.049 40.792C125.824 40.5569 125.692 40.2676 125.692 39.8879ZM137.497 45.9276V41.5154H140.598V42.5461H138.699V45.9276H137.497ZM141.218 45.9276V41.5154H143.023C143.53 41.5154 143.963 41.66 144.301 41.9313C144.639 42.2025 144.808 42.5823 144.808 43.0343C144.808 43.4864 144.639 43.8481 144.301 44.1374C143.963 44.4267 143.549 44.5714 143.041 44.5714H142.44V45.9457H141.218V45.9276ZM142.421 43.5407H143.041C143.211 43.5407 143.342 43.4864 143.436 43.396C143.53 43.3056 143.587 43.179 143.587 43.0163C143.587 42.8535 143.53 42.7269 143.436 42.6365C143.342 42.5461 143.211 42.4918 143.041 42.4918H142.421V43.5407ZM147.722 45.9276H149L146.914 41.4249H146.538L144.451 45.9276H145.729L145.899 45.566H147.553L147.722 45.9276ZM147.12 44.6257H146.312L146.707 43.5949L147.12 44.6257ZM153.154 41.4249H153.53V45.9276H152.327V43.6311L149.846 46H149.47V41.4973H150.673V43.7577L153.154 41.4249ZM150.447 39.8879V39.8336H151.387V39.924C151.387 40.1953 151.5 40.3219 151.744 40.3219C151.989 40.3219 152.101 40.1953 152.101 39.924V39.8336H153.041V39.8879C153.041 40.2495 152.928 40.5569 152.684 40.792C152.44 41.0271 152.139 41.1356 151.744 41.1356C151.368 41.1356 151.049 41.0271 150.804 40.792C150.56 40.5569 150.447 40.2676 150.447 39.8879Z" fill="white"/>
<path fill-rule="evenodd" clip-rule="evenodd" d="M133.117 42.4014C133.831 42.4014 134.395 42.9439 134.395 43.631C134.395 44.3182 133.831 44.8607 133.117 44.8607C132.403 44.8607 131.839 44.3182 131.839 43.631C131.839 42.9439 132.403 42.4014 133.117 42.4014Z" fill="#E40005"/>
<path fill-rule="evenodd" clip-rule="evenodd" d="M110.505 42.4014C111.219 42.4014 111.783 42.9439 111.783 43.631C111.783 44.3182 111.219 44.8607 110.505 44.8607C109.79 44.8607 109.227 44.3182 109.227 43.631C109.227 42.9439 109.79 42.4014 110.505 42.4014Z" fill="#E40005"/>
</svg>
