<svg width="1062" height="280" viewBox="0 0 1062 280" fill="none" xmlns="http://www.w3.org/2000/svg">
<path fill-rule="evenodd" clip-rule="evenodd" d="M897.84 149.518V130.979C902.008 130.979 905.503 130.979 909.671 130.979C910.478 130.979 911.284 130.979 912.091 131.248C916.259 132.188 919.217 135.816 919.217 140.249C919.217 145.085 915.452 149.115 910.612 149.518C910.209 149.518 909.671 149.518 909.268 149.518C905.234 149.652 901.873 149.518 897.84 149.518ZM995.986 205.671H966.946V106.261H997.734V144.547L1023.14 106.261H1059.45L1026.51 152.473L1062 205.537H1024.76L997.734 162.28V205.537H995.986V205.671ZM701.009 149.518V130.979C705.177 130.979 708.672 130.979 712.84 130.979C713.647 130.979 714.453 130.979 715.26 131.248C719.428 132.188 722.386 135.816 722.386 140.249C722.386 145.085 718.621 149.115 713.781 149.518C713.378 149.518 712.84 149.518 712.437 149.518C708.403 149.652 705.042 149.518 701.009 149.518ZM699.395 205.671H701.143V173.699H714.319C715.932 173.699 717.546 173.699 719.294 173.564C736.906 172.355 750.889 157.713 750.889 139.846C750.889 123.86 739.73 110.426 724.672 106.933C721.579 106.261 718.89 106.127 715.663 106.127C700.605 106.127 685.547 106.127 670.489 106.127V205.537H699.395V205.671ZM774.417 205.671H743.629L783.828 106.261H813.003C826.448 139.443 839.893 172.49 853.203 205.671H819.726L813.003 186.058H782.484L775.493 205.671H774.417ZM798.214 142.264C796.063 149.115 793.643 155.698 791.223 162.414H805.071C802.651 155.698 800.365 149.115 798.214 142.264ZM896.092 205.671H897.84V169.266L920.83 205.671H954.442L928.494 164.832C929.569 164.295 930.914 163.623 932.124 162.952C941.401 157.847 947.854 147.906 947.854 136.487C947.854 123.86 940.191 113.113 929.166 108.545C922.309 105.724 913.704 106.261 906.444 106.261C893.268 106.261 880.227 106.127 867.051 106.127V205.537H896.092V205.671Z" fill="white"/>
<path fill-rule="evenodd" clip-rule="evenodd" d="M479.036 0C556.209 0 618.862 62.6013 618.862 139.711C618.862 216.821 556.209 279.422 479.036 279.422C401.863 279.422 339.211 216.821 339.211 139.711C339.211 62.6013 401.863 0 479.036 0Z" fill="#E40005"/>
<path fill-rule="evenodd" clip-rule="evenodd" d="M516.681 109.082C510.9 110.694 507.673 111.634 505.926 112.172C505.926 124.128 505.926 135.949 505.926 148.443C506.732 148.309 510.766 146.965 515.471 145.622C521.118 143.875 526.362 142.666 531.47 140.786C536.445 139.039 541.285 136.621 546.125 132.86C555.94 125.068 561.99 112.037 563.738 99.6783C565.486 87.588 563.2 74.9602 556.343 64.7506C546.26 49.9735 527.706 45.2717 506.06 50.5108V68.109C506.06 74.9602 506.06 81.8115 506.06 88.6627C507.808 88.1253 508.884 87.8566 510.362 87.3193C516.816 85.3042 525.42 86.9163 526.093 94.8422C526.496 101.022 522.597 107.336 516.681 109.082Z" fill="#AA090F"/>
<path fill-rule="evenodd" clip-rule="evenodd" d="M447.307 218.164L489.657 206.745L474.196 149.249L505.791 139.711V103.708L465.188 115.53L459.407 93.6331L505.926 79.9306V41.9131L407.376 69.318L447.307 218.164Z" fill="white"/>
<path fill-rule="evenodd" clip-rule="evenodd" d="M503.909 247.45C507.404 261.152 499.203 275.123 485.49 278.751C471.776 282.243 457.793 274.049 454.163 260.346C450.668 246.644 458.869 232.673 472.583 229.046C486.431 225.419 500.413 233.747 503.909 247.45Z" fill="white"/>
<path fill-rule="evenodd" clip-rule="evenodd" d="M81.8784 165.101C83.4918 189.148 103.525 208.224 127.994 208.224C149.909 208.224 168.328 192.909 173.034 172.355C173.975 168.057 174.244 164.43 174.244 159.996V106.127H144.397V160.937C144.397 162.683 144.531 164.698 144.262 166.445C143.186 174.371 136.33 180.55 128.128 180.55C119.927 180.55 113.07 174.505 111.995 166.579C111.726 165.101 111.86 163.758 111.86 162.28V105.993H82.013V158.25C81.7441 160.668 81.744 162.952 81.8784 165.101ZM0 205.671V106.261H67.7616V132.726H30.7886V145.488H60.6357V168.594H30.7886V205.671H0ZM286.104 205.671H258.274C245.77 188.476 234.611 174.102 221.704 156.504C221.973 173.833 221.838 188.476 221.838 205.671H190.781V106.261H218.88C231.518 123.457 244.425 140.652 256.795 158.116C256.526 140.786 256.66 123.591 256.66 106.261H287.718V205.671H286.104Z" fill="white"/>
</svg>
