<svg width="30" height="30" viewBox="0 0 30 30" fill="none" xmlns="http://www.w3.org/2000/svg">
<g clip-path="url(#clip0)">
<path d="M24.0337 30V0H24L5.9664 7.50795e-05L5.96631 30H24.0337ZM7.46784 5.39939H22.5261V22.4494H7.46784V5.39939ZM7.46784 1.50153H22.5322V3.89786H7.46784V1.5C7.46784 1.04035 7.46784 1.50153 7.46784 1.50153ZM7.46784 28.4923V23.9448H22.5261V28.4923H7.46784Z" fill="white"/>
<path d="M17.2738 25.5322H12.7198C12.7198 25.5322 12.7202 25.8693 12.7202 26.2861C12.7202 26.7028 12.7197 27.0399 12.7197 27.0399H17.2738C17.2738 27.0399 17.2738 26.7028 17.2738 26.2861C17.2738 25.8693 17.2738 25.5322 17.2738 25.5322Z" fill="white"/>
</g>
<defs>
<clipPath id="clip0">
<rect width="30" height="30" fill="white"/>
</clipPath>
</defs>
</svg>
