<svg width="224" height="410" viewBox="0 0 224 410" fill="none" xmlns="http://www.w3.org/2000/svg">
<g filter="url(#filter0_d)">
<path fill-rule="evenodd" clip-rule="evenodd" d="M194 28.9C191.718 28.4367 190 26.419 190 24H185C185 26.7614 182.761 29 180 29C177.239 29 175 26.7614 175 24H170C170 26.7614 167.761 29 165 29C162.239 29 160 26.7614 160 24H155C155 26.7614 152.761 29 150 29C147.239 29 145 26.7614 145 24H140C140 26.7614 137.761 29 135 29C132.239 29 130 26.7614 130 24L125 24C125 26.7614 122.761 29 120 29C117.239 29 115 26.7614 115 24H110C110 26.7614 107.761 29 105 29C102.239 29 100 26.7614 100 24L95 24C95 26.7614 92.7614 29 90 29C87.2386 29 85 26.7614 85 24H80C80 26.7614 77.7614 29 75 29C72.2386 29 70 26.7614 70 24L65 24C65 26.7614 62.7614 29 60 29C57.2386 29 55 26.7614 55 24H50C50 26.7614 47.7614 29 45 29C42.2386 29 40 26.7614 40 24H35C35 26.7614 32.7614 29 30 29L30 120.071L30.0711 120L37.1421 127.071L30.0711 134.142L30 134.071L30 369C32.7614 369 35 371.239 35 374H40C40 371.239 42.2386 369 45 369C47.7614 369 50 371.239 50 374H55C55 371.239 57.2386 369 60 369C62.7614 369 65 371.239 65 374H70C70 371.239 72.2386 369 75 369C77.7614 369 80 371.239 80 374H85C85 371.239 87.2386 369 90 369C92.7614 369 95 371.239 95 374H100C100 371.239 102.239 369 105 369C107.761 369 110 371.239 110 374H115C115 371.239 117.239 369 120 369C122.761 369 125 371.239 125 374H130C130 371.239 132.239 369 135 369C137.761 369 140 371.239 140 374H145C145 371.239 147.239 369 150 369C152.761 369 155 371.239 155 374H160C160 371.239 162.239 369 165 369C167.761 369 170 371.239 170 374H175C175 371.239 177.239 369 180 369C182.761 369 185 371.239 185 374H190C190 371.581 191.718 369.563 194 369.1L194 134.071L187 127.071L194 120.071V28.9Z" fill="white"/>
</g>
<defs>
<filter id="filter0_d" x="0" y="0" width="224" height="410" filterUnits="userSpaceOnUse" color-interpolation-filters="sRGB">
<feFlood flood-opacity="0" result="BackgroundImageFix"/>
<feColorMatrix in="SourceAlpha" type="matrix" values="0 0 0 0 0 0 0 0 0 0 0 0 0 0 0 0 0 0 127 0"/>
<feOffset dy="6"/>
<feGaussianBlur stdDeviation="15"/>
<feColorMatrix type="matrix" values="0 0 0 0 0.308333 0 0 0 0 0.427477 0 0 0 0 0.5 0 0 0 0.1 0"/>
<feBlend mode="normal" in2="BackgroundImageFix" result="effect1_dropShadow"/>
<feBlend mode="normal" in="SourceGraphic" in2="effect1_dropShadow" result="shape"/>
</filter>
</defs>
</svg>
