<svg width="30" height="31" viewBox="0 0 30 31" fill="none" xmlns="http://www.w3.org/2000/svg">
<path d="M15 30C23.2843 30 30 23.2843 30 15C30 6.71573 23.2843 0 15 0C6.71573 0 0 6.71573 0 15C0 23.2843 6.71573 30 15 30Z" fill="#00456F"/>
<path d="M20.2616 9H9.73837C7.67372 9 6 10.7082 6 12.8155V18.1845C6 20.2917 7.67372 22 9.73837 22H20.2616C22.3263 22 24 20.2917 24 18.1845V12.8155C24 10.7082 22.3263 9 20.2616 9ZM17.7334 15.7612L12.8113 18.1572C12.6802 18.221 12.5287 18.1234 12.5287 17.9751V13.0335C12.5287 12.8831 12.6842 12.7856 12.8156 12.8536L17.7377 15.3993C17.884 15.475 17.8815 15.6892 17.7334 15.7612Z" fill="white"/>
</svg>
