<svg width="44" height="44" viewBox="0 0 44 44" fill="none" xmlns="http://www.w3.org/2000/svg">
<path fill-rule="evenodd" clip-rule="evenodd" d="M22.0001 0C34.1593 0 44.0002 9.86291 44.0002 21.9964C44.0002 34.1299 34.1356 43.9928 22.0001 43.9928C9.84101 43.9928 0.000183105 34.1299 0.000183105 21.9964C0.000183105 9.86291 9.84101 0 22.0001 0Z" fill="#E40005"/>
<path fill-rule="evenodd" clip-rule="evenodd" d="M27.9137 17.1948C27.0148 17.4549 26.4944 17.5968 26.2105 17.6915C26.2105 19.5836 26.2105 21.4521 26.2105 23.4153C26.3524 23.3916 26.9675 23.1787 27.7008 22.9659C28.5761 22.7057 29.4041 22.4928 30.232 22.209C31.0127 21.9252 31.7696 21.5467 32.5266 20.9554C34.0879 19.7492 35.0104 17.6678 35.2943 15.7283C35.5545 13.8125 35.2234 11.8257 34.1352 10.2174C32.5503 7.87585 29.6406 7.14264 26.2342 7.97046V10.7378C26.2342 11.8257 26.2342 12.8901 26.2342 13.9781C26.4944 13.9071 26.6837 13.8362 26.9202 13.7652C27.9374 13.4577 29.2858 13.6943 29.4041 14.9478C29.4514 15.9176 28.8363 16.8873 27.9137 17.1948Z" fill="#AA090F"/>
<path fill-rule="evenodd" clip-rule="evenodd" d="M16.9851 34.343L23.6561 32.5691L21.2432 23.4867L26.211 21.9966V16.3201L19.8239 18.1886L18.9013 14.7591L26.211 12.5831V6.59912L10.7163 10.9038L16.9851 34.343Z" fill="white"/>
<path fill-rule="evenodd" clip-rule="evenodd" d="M25.9036 38.9553C26.4713 41.1076 25.1467 43.3072 22.994 43.8749C20.8413 44.4189 18.6413 43.1417 18.0735 40.9657C17.5294 38.8133 18.8069 36.6137 20.9832 36.0461C23.1359 35.5021 25.3595 36.8029 25.9036 38.9553Z" fill="white"/>
</svg>
