<svg width="30" height="28" viewBox="0 0 30 28" fill="none" xmlns="http://www.w3.org/2000/svg">
<path fill-rule="evenodd" clip-rule="evenodd" d="M15 0.84993C8.49669 0.84993 3.2061 6.14052 3.2061 12.6439V13.0214C1.61777 13.3649 0.423706 14.7796 0.423706 16.4696C0.423706 18.178 1.64384 19.6054 3.25811 19.9289C3.51177 22.4821 4.70692 24.3844 6.82283 25.5723C8.72362 26.6394 11.4045 27.15 15 27.15C18.5955 27.15 21.2765 26.6394 23.1773 25.5723C25.2931 24.3844 26.4882 22.4822 26.7419 19.9289C28.3562 19.6054 29.5763 18.178 29.5763 16.4696C29.5763 14.7795 28.3823 13.3648 26.7939 13.0214V12.6439C26.7939 6.14052 21.5033 0.84993 15 0.84993ZM16.655 3.08393C16.3759 2.81788 16.0718 2.5797 15.747 2.37039C21.0795 2.75441 25.3012 7.21523 25.3012 12.6439V18.8633C25.3012 20.1548 25.0648 21.237 24.5926 22.1291C24.1211 23.0199 23.4101 23.7296 22.4465 24.2706C20.795 25.1978 18.3661 25.6572 15 25.6572C11.634 25.6572 9.20506 25.1978 7.55362 24.2706C6.58999 23.7296 5.87891 23.0199 5.4074 22.1291C4.93524 21.237 4.69885 20.1548 4.69885 18.8633V12.6439C4.69885 8.00066 7.78753 4.06514 12.0185 2.78327C15.2081 2.8345 16.8724 5.13491 16.8724 6.75511C16.8724 7.98489 15.8717 8.98569 14.6418 8.98569C13.7404 8.98569 13.0067 8.25199 13.0067 7.35052C13.0067 6.71166 13.5267 6.19162 14.1656 6.19162H14.9119V4.69887H14.1656C12.7033 4.69887 11.5139 5.88826 11.5139 7.35052C11.5139 9.07541 12.917 10.4784 14.6418 10.4784C16.695 10.4784 18.3652 8.8083 18.3652 6.75511C18.3652 5.46948 17.7212 4.10019 16.655 3.08393ZM1.91646 16.4696C1.91646 15.6109 2.45145 14.8744 3.20602 14.576V18.3632C2.45146 18.0648 1.91646 17.3283 1.91646 16.4696ZM26.7939 18.3632V14.576C27.5486 14.8745 28.0836 15.6109 28.0836 16.4696C28.0836 17.3283 27.5485 18.0648 26.7939 18.3632ZM8.98332 15.6601C8.26776 15.6601 7.68768 16.2402 7.68768 16.9557C7.68768 17.6713 8.26776 18.2514 8.98332 18.2514C9.69888 18.2514 10.279 17.6713 10.279 16.9557C10.279 16.2402 9.69888 15.6601 8.98332 15.6601ZM21.0167 15.6601C20.3011 15.6601 19.7211 16.2402 19.7211 16.9557C19.7211 17.6713 20.3011 18.2514 21.0167 18.2514C21.7323 18.2514 22.3123 17.6713 22.3123 16.9557C22.3123 16.2402 21.7323 15.6601 21.0167 15.6601ZM18.7229 19.0134L17.7268 18.0355L17.2718 18.4931C16.6088 19.1671 15.802 19.4996 14.9849 19.4996C14.1685 19.4996 13.3306 19.1676 12.606 18.4921L12.2507 18.1132L11.3018 18.9777L11.377 19.0858L11.3777 19.0867L11.3796 19.0895L11.3868 19.0997L11.4132 19.1368C11.4355 19.1679 11.4668 19.211 11.5027 19.2586C11.5728 19.3516 11.6658 19.4696 11.7441 19.5478C12.6418 20.4456 13.8213 20.8944 15 20.8944C16.1788 20.8944 17.3582 20.4456 18.256 19.5478C18.3788 19.425 18.4747 19.3186 18.5401 19.2426C18.5729 19.2046 18.598 19.1741 18.6152 19.1529L18.6349 19.1282L18.6402 19.1215L18.6416 19.1196L18.6423 19.1187L18.7229 19.0134ZM11.5 19L11.377 19.0858C11.377 19.0858 11.3769 19.0857 11.5 19Z" fill="white"/>
</svg>
