<svg width="30" height="30" viewBox="0 0 30 30" fill="none" xmlns="http://www.w3.org/2000/svg">
<path d="M26.8786 30L16.8454 6.53332L18.3664 7.41152L19.2453 5.88926L16.7579 4.45312L19.2453 3.01699L18.3664 1.49473L15.879 2.93086V0H14.1212V2.93086L11.6337 1.49473L10.7548 3.01699L13.2422 4.45312L10.7548 5.88926L11.6337 7.41152L13.1548 6.53332L3.12152 30H26.8786ZM15.0001 6.68877L18.6028 15.1153L12.1817 13.2807L15.0001 6.68877ZM19.4932 17.1979L21.1712 21.1226L10.1724 17.9801L11.4851 14.9099L19.4932 17.1979ZM22.0617 23.2051L23.7654 27.1901L8.16205 22.6822L9.4759 19.6092L22.0617 23.2051ZM21.0738 28.2422H5.78484L7.46578 24.3107L21.0738 28.2422Z" fill="white"/>
</svg>
