<svg width="54" height="84" viewBox="0 0 54 84" fill="none" xmlns="http://www.w3.org/2000/svg">
<path fill-rule="evenodd" clip-rule="evenodd" d="M26.9892 0.736755C38.3229 0.736755 47.4956 9.92404 47.4956 21.2264C47.4956 32.5287 38.3229 41.716 26.9892 41.716C15.6556 41.716 6.48291 32.5287 6.48291 21.2264C6.48291 9.92404 15.6777 0.736755 26.9892 0.736755Z" fill="#E40005"/>
<path fill-rule="evenodd" clip-rule="evenodd" d="M32.5017 16.7537C31.6638 16.9961 31.1787 17.1283 30.9141 17.2164C30.9141 18.9789 30.9141 20.7194 30.9141 22.5481C31.0464 22.5261 31.6197 22.3278 32.3032 22.1295C33.1191 21.8871 33.8909 21.6888 34.6626 21.4245C35.3903 21.1601 36.0959 20.8076 36.8015 20.2568C38.2568 19.1331 39.1167 17.1943 39.3813 15.3877C39.6239 13.6032 39.3152 11.7525 38.3009 10.2543C36.8235 8.07316 34.1114 7.39017 30.9361 8.16128V10.739C30.9361 11.7525 30.9361 12.7439 30.9361 13.7574C31.1787 13.6913 31.355 13.6252 31.5755 13.5591C32.5237 13.2727 33.7806 13.493 33.8908 14.6607C33.957 15.564 33.3616 16.4673 32.5017 16.7537Z" fill="#AA090F"/>
<path fill-rule="evenodd" clip-rule="evenodd" d="M22.3365 32.727L28.5545 31.0746L26.2833 22.6144L30.9138 21.2264V15.9388L24.9603 17.6793L24.1004 14.4847L30.9138 12.4577V6.88367L16.4712 10.8935L22.3365 32.727Z" fill="white"/>
<path fill-rule="evenodd" clip-rule="evenodd" d="M30.6271 37.0231C31.1563 39.028 29.9436 41.077 27.915 41.6058C25.9084 42.1125 23.8578 40.9228 23.3286 38.8958C22.8214 36.8909 24.0121 34.842 26.0407 34.3132C28.0693 33.8065 30.1199 35.0182 30.6271 37.0231Z" fill="white"/>
<path fill-rule="evenodd" clip-rule="evenodd" d="M31.3769 75.2926V72.7369C31.9502 72.7369 32.4353 72.7369 33.0086 72.7369C33.1188 72.7369 33.2291 72.7369 33.3393 72.759C33.9126 72.8912 34.3315 73.3979 34.3315 73.9928C34.3315 74.6757 33.8024 75.2265 33.1409 75.2706C33.0747 75.2706 33.0085 75.2706 32.9644 75.2706C32.3912 75.2926 31.9281 75.2926 31.3769 75.2926ZM44.9155 83.0038H40.9024V69.3L45.136 69.3V74.5876L48.6419 69.3H53.6472L49.1049 75.6892L54 83.0258L48.8624 83.0258L45.136 77.0552V83.0258H44.9155V83.0038ZM4.21152 75.2926V72.7369C4.78482 72.7369 5.26989 72.7369 5.84319 72.7369C5.95344 72.7369 6.06367 72.7369 6.17392 72.759C6.74722 72.8912 7.16619 73.3979 7.16619 73.9928C7.16619 74.6757 6.63698 75.2265 5.97548 75.2706C5.90933 75.2706 5.84321 75.2706 5.79911 75.2706C5.24787 75.2926 4.76277 75.2926 4.21152 75.2926ZM3.99101 83.0038H4.23353V78.5974H6.0637C6.2842 78.5974 6.52674 78.5974 6.74724 78.5974C9.17272 78.4432 11.0911 76.4163 11.0911 73.9487C11.0911 71.7235 9.54754 69.8728 7.47486 69.4101C7.05591 69.322 6.65902 69.3 6.24007 69.3C4.16739 69.3 2.09473 69.3 0 69.3L0 83.0038H3.99101ZM14.3544 83.0038H10.0988L15.6554 69.3H19.6905C21.5427 73.8606 23.3948 78.4432 25.247 83.0038H20.6386L19.7125 80.2939H15.501L14.5308 83.0038H14.3544ZM17.6178 74.2792C17.3091 75.2045 16.9783 76.1298 16.6476 77.0552H18.5439C18.2352 76.1298 17.9265 75.2045 17.6178 74.2792ZM31.1343 83.0038H31.3769L31.3769 77.9805L34.552 83.0038H39.1825L35.6105 77.3636C35.7648 77.2755 35.9412 77.2094 36.1176 77.1213C37.3965 76.4163 38.3005 75.0503 38.3005 73.464C38.3005 71.7235 37.2421 70.2473 35.7207 69.6084C34.7725 69.2118 33.5819 69.3 32.5896 69.3C30.7816 69.3 28.9735 69.3 27.1433 69.3L27.1433 83.0038H31.1343Z" fill="#00456F"/>
<path fill-rule="evenodd" clip-rule="evenodd" d="M18.4334 59.8262C18.6539 63.153 21.4101 65.7748 24.7837 65.7748C27.8046 65.7748 30.3403 63.6598 31.0018 60.8397C31.1341 60.2448 31.1562 59.7381 31.1562 59.1432V51.6965L27.0328 51.6965V59.2754C27.0328 59.5178 27.0549 59.8042 27.0108 60.0465C26.8565 61.1481 25.9303 62.0074 24.7837 62.0074C23.6372 62.0074 22.711 61.1702 22.5567 60.0686C22.5346 59.8703 22.5347 59.672 22.5347 59.4737V51.7185H18.4114V58.9229C18.4334 59.2093 18.4334 59.5178 18.4334 59.8262ZM7.1438 65.4003L7.1438 51.6965H16.493V55.3538H11.3774V57.1163H15.4787L15.4787 60.3109H11.3774V65.4223H7.1438V65.4003ZM46.6132 65.4003H42.7765C41.0566 63.0208 39.5131 61.038 37.7271 58.6145C37.7712 60.9939 37.7491 63.0208 37.7491 65.4003H33.4714V51.6965H37.3522C39.0942 54.0759 40.8802 56.4333 42.5781 58.8568C42.534 56.4774 42.556 54.0759 42.556 51.6965H46.8337V65.4003H46.6132Z" fill="#00456F"/>
</svg>
