<svg width="164" height="350" viewBox="0 0 164 350" fill="none" xmlns="http://www.w3.org/2000/svg">
<path fill-rule="evenodd" clip-rule="evenodd" d="M164 4.89999C161.718 4.43672 160 2.41897 160 7.62939e-06L155 7.62939e-06C155 2.76143 152.761 5.00001 150 5.00001C147.239 5.00001 145 2.76143 145 7.62939e-06L140 7.62939e-06C140 2.76143 137.761 5.00001 135 5.00001C132.239 5.00001 130 2.76143 130 7.62939e-06L125 7.62939e-06C125 2.76143 122.761 5.00001 120 5.00001C117.239 5.00001 115 2.76143 115 7.62939e-06L110 7.62939e-06C110 2.76143 107.761 5.00001 105 5.00001C102.239 5.00001 100 2.76143 100 7.62939e-06L95 7.62939e-06C95 2.76143 92.7614 5.00001 90 5.00001C87.2386 5.00001 85 2.76143 85 7.62939e-06L80 7.62939e-06C80 2.76143 77.7614 5.00001 75 5.00001C72.2386 5.00001 70 2.76143 70 7.62939e-06L65 7.62939e-06C65 2.76143 62.7614 5.00001 60 5.00001C57.2386 5.00001 55 2.76143 55 7.62939e-06L50 7.62939e-06C50 2.76143 47.7614 5.00001 45 5.00001C42.2386 5.00001 40 2.76143 40 7.62939e-06L35 7.62939e-06C35 2.76143 32.7614 5.00001 30 5.00001C27.2386 5.00001 25 2.76143 25 7.62939e-06L20 7.62939e-06C20 2.76143 17.7614 5.00001 15 5.00001C12.2386 5.00001 10 2.76143 10 7.62939e-06L5 7.62939e-06C5 2.76143 2.76142 5.00001 0 5.00001L0 96.0711L0.0710677 96L7.14214 103.071L0.0710677 110.142L0 110.071L0 345C2.76142 345 5 347.239 5 350H10C10 347.239 12.2386 345 15 345C17.7614 345 20 347.239 20 350H25C25 347.239 27.2386 345 30 345C32.7614 345 35 347.239 35 350H40C40 347.239 42.2386 345 45 345C47.7614 345 50 347.239 50 350H55C55 347.239 57.2386 345 60 345C62.7614 345 65 347.239 65 350H70C70 347.239 72.2386 345 75 345C77.7614 345 80 347.239 80 350H85C85 347.239 87.2386 345 90 345C92.7614 345 95 347.239 95 350H100C100 347.239 102.239 345 105 345C107.761 345 110 347.239 110 350H115C115 347.239 117.239 345 120 345C122.761 345 125 347.239 125 350H130C130 347.239 132.239 345 135 345C137.761 345 140 347.239 140 350H145C145 347.239 147.239 345 150 345C152.761 345 155 347.239 155 350H160C160 347.581 161.718 345.563 164 345.1L164 110.071L157 103.071L164 96.071V4.89999Z" fill="white"/>
</svg>
